<mxfile host="app.diagrams.net" agent="Mozilla/5.0 (Windows NT 10.0; Win64; x64) AppleWebKit/537.36 (KHTML, like Gecko) Chrome/135.0.0.0 Safari/537.36" version="26.2.13">
  <diagram name="Page-1" id="eIMo6nulVp_KZ3pZQUzS">
    <mxGraphModel dx="874" dy="439" grid="1" gridSize="10" guides="1" tooltips="1" connect="1" arrows="1" fold="1" page="1" pageScale="1" pageWidth="827" pageHeight="1169" math="0" shadow="0">
      <root>
        <mxCell id="0" />
        <mxCell id="1" parent="0" />
        <mxCell id="2tNkqaK0cQ4KyptDWnYA-3" value="&lt;font style=&quot;color: light-dark(rgb(0, 0, 0), rgb(255, 255, 255));&quot;&gt;Data Interface Layer&lt;/font&gt;" style="shape=cylinder3;whiteSpace=wrap;html=1;boundedLbl=1;backgroundOutline=1;size=15;fillColor=#1ba1e2;fontColor=#ffffff;strokeColor=#006EAF;" vertex="1" parent="1">
          <mxGeometry x="320" y="190" width="160" height="90" as="geometry" />
        </mxCell>
        <mxCell id="2tNkqaK0cQ4KyptDWnYA-4" value="User Interface" style="text;html=1;align=center;verticalAlign=middle;whiteSpace=wrap;rounded=0;" vertex="1" parent="1">
          <mxGeometry x="370" y="70" width="60" height="30" as="geometry" />
        </mxCell>
        <mxCell id="2tNkqaK0cQ4KyptDWnYA-2" value="Business Layer" style="shape=cylinder3;whiteSpace=wrap;html=1;boundedLbl=1;backgroundOutline=1;size=15;fillColor=#fa6800;fontColor=#000000;strokeColor=#C73500;" vertex="1" parent="1">
          <mxGeometry x="320" y="130" width="160" height="90" as="geometry" />
        </mxCell>
        <mxCell id="2tNkqaK0cQ4KyptDWnYA-1" value="&lt;font color=&quot;rgba(0, 0, 0, 0)&quot;&gt;User Interface&lt;/font&gt;" style="shape=cylinder3;whiteSpace=wrap;html=1;boundedLbl=1;backgroundOutline=1;size=15;fillColor=#0050ef;fontColor=#ffffff;strokeColor=#001DBC;" vertex="1" parent="1">
          <mxGeometry x="320" y="70" width="160" height="90" as="geometry" />
        </mxCell>
        <mxCell id="2tNkqaK0cQ4KyptDWnYA-5" value="" style="shape=cylinder3;whiteSpace=wrap;html=1;boundedLbl=1;backgroundOutline=1;size=15;" vertex="1" parent="1">
          <mxGeometry x="320" y="330" width="60" height="80" as="geometry" />
        </mxCell>
        <mxCell id="2tNkqaK0cQ4KyptDWnYA-6" value="" style="shape=cylinder3;whiteSpace=wrap;html=1;boundedLbl=1;backgroundOutline=1;size=15;" vertex="1" parent="1">
          <mxGeometry x="430" y="330" width="60" height="80" as="geometry" />
        </mxCell>
        <mxCell id="2tNkqaK0cQ4KyptDWnYA-7" value="" style="endArrow=classic;html=1;rounded=0;entryX=0.25;entryY=1;entryDx=0;entryDy=0;entryPerimeter=0;" edge="1" parent="1" target="2tNkqaK0cQ4KyptDWnYA-3">
          <mxGeometry width="50" height="50" relative="1" as="geometry">
            <mxPoint x="340" y="330" as="sourcePoint" />
            <mxPoint x="390" y="280" as="targetPoint" />
          </mxGeometry>
        </mxCell>
        <mxCell id="2tNkqaK0cQ4KyptDWnYA-8" value="" style="endArrow=classic;html=1;rounded=0;entryX=0.683;entryY=0.013;entryDx=0;entryDy=0;entryPerimeter=0;" edge="1" parent="1" target="2tNkqaK0cQ4KyptDWnYA-5">
          <mxGeometry width="50" height="50" relative="1" as="geometry">
            <mxPoint x="380" y="280" as="sourcePoint" />
            <mxPoint x="430" y="230" as="targetPoint" />
          </mxGeometry>
        </mxCell>
        <mxCell id="2tNkqaK0cQ4KyptDWnYA-9" value="" style="endArrow=classic;html=1;rounded=0;entryX=0.663;entryY=1.033;entryDx=0;entryDy=0;entryPerimeter=0;exitX=0.145;exitY=0;exitDx=0;exitDy=4.35;exitPerimeter=0;" edge="1" parent="1" source="2tNkqaK0cQ4KyptDWnYA-6" target="2tNkqaK0cQ4KyptDWnYA-3">
          <mxGeometry width="50" height="50" relative="1" as="geometry">
            <mxPoint x="450" y="330" as="sourcePoint" />
            <mxPoint x="500" y="280" as="targetPoint" />
            <Array as="points" />
          </mxGeometry>
        </mxCell>
        <mxCell id="2tNkqaK0cQ4KyptDWnYA-10" value="" style="endArrow=classic;html=1;rounded=0;entryX=0.5;entryY=0;entryDx=0;entryDy=0;entryPerimeter=0;" edge="1" parent="1" target="2tNkqaK0cQ4KyptDWnYA-6">
          <mxGeometry width="50" height="50" relative="1" as="geometry">
            <mxPoint x="440" y="280" as="sourcePoint" />
            <mxPoint x="490" y="230" as="targetPoint" />
          </mxGeometry>
        </mxCell>
      </root>
    </mxGraphModel>
  </diagram>
</mxfile>
